<?xml version="1.0" encoding="utf-8" ?>
<svg baseProfile="full" height="200mm" version="1.1" viewBox="0,0,200,200" width="200mm" xmlns="http://www.w3.org/2000/svg" xmlns:ev="http://www.w3.org/2001/xml-events" xmlns:xlink="http://www.w3.org/1999/xlink"><defs /><rect fill="#1a1a1a" height="200" width="200" x="0" y="0" /><text alignment-baseline="middle" fill="#e1ed5e" style="dominant-baseline: central; font-size:9.0px; font-family:Arial;" text-anchor="middle" x="100.0" y="100.0">2023</text><line stroke="#e1ed5e" stroke-width="0.3" x1="100.0" x2="100.0" y1="15.0" y2="10.0" /><path d="M 100.0 14.0 a86.0,86.0 0 0,1 42.46469731375804,11.215312516191453" fill="none" id="id49" stroke="none" /><text fill="#e1ed5e" style="font-size:6.75px; font-family:Arial;" text-anchor="middle"><textPath startOffset="22.20632615414155" xlink:href="#id49">January</textPath></text><line stroke="#e1ed5e" stroke-width="0.3" x1="143.23703022742887" x2="145.7803849466894" y1="26.81831364943548" y2="22.513508569990506" /><path d="M 143.74570117128098 25.957352633546492 a86.0,86.0 0 0,1 28.547481713284135,27.462654790039103" fill="none" id="id50" stroke="none" /><text fill="#e1ed5e" style="font-size:6.75px; font-family:Arial;" text-anchor="middle"><textPath startOffset="19.985693538727396" xlink:href="#id50">February</textPath></text><line stroke="#e1ed5e" stroke-width="0.3" x1="172.23445277983987" x2="176.4835382374775" y1="55.19839476539836" y2="52.563006222186495" /><path d="M 173.08426987136738 54.67131705675599 a86.0,86.0 0 0,1 12.851231095245387,41.99856678651699" fill="none" id="id51" stroke="none" /><text fill="#e1ed5e" style="font-size:6.75px; font-family:Arial;" text-anchor="middle"><textPath startOffset="22.20632615414155" xlink:href="#id51">March</textPath></text><line stroke="#e1ed5e" stroke-width="0.3" x1="184.98032266829074" x2="189.97916517819016" y1="98.17113171792111" y2="98.06355123074" /><path d="M 185.9800911702706 98.14961562048488 a86.0,86.0 0 0,1 -9.607161424134198,41.387399972396054" fill="none" id="id52" stroke="none" /><text fill="#e1ed5e" style="font-size:6.75px; font-family:Arial;" text-anchor="middle"><textPath startOffset="21.466115282336823" xlink:href="#id52">April</textPath></text><line stroke="#e1ed5e" stroke-width="0.3" x1="174.80103733775053" x2="179.2010983576182" y1="140.37084112569926" y2="142.7455964860345" /><path d="M 175.68104954172406 140.8457921977663 a86.0,86.0 0 0,1 -30.038265399797805,32.042727171017184" fill="none" id="id53" stroke="none" /><text fill="#e1ed5e" style="font-size:6.75px; font-family:Arial;" text-anchor="middle"><textPath startOffset="22.206326154141568" xlink:href="#id53">May</textPath></text><line stroke="#e1ed5e" stroke-width="0.3" x1="143.8653032363475" x2="146.44561519142675" y1="172.8068346515853" y2="177.08958963109032" /><path d="M 144.38136562736335 173.6633856474863 a86.0,86.0 0 0,1 -40.68145358897372,12.25698825130547" fill="none" id="id54" stroke="none" /><text fill="#e1ed5e" style="font-size:6.75px; font-family:Arial;" text-anchor="middle"><textPath startOffset="21.466115282336833" xlink:href="#id54">June</textPath></text><path d="M 105.18746579009965 120.34920634021253 l 6.860230792405405 26.911069409376378 a48.77171984737964,48.77171984737964 0 0,0 -0.8152929547546185,0.20037917229964605 l -6.395984552907576 -27.025169839990053" fill="#fffe18" stroke="none" /><path d="M 104.83641907484287 120.43548508189849 l 7.385104397355726 31.20453137021201 a53.066533099079926,53.066533099079926 0 0,0 -0.890708745666781,0.2027224106150532 l -6.846875502296083 -31.32703051440475" fill="#c2ff1e" stroke="none" /><path d="M 104.13013068566511 120.58985236759428 l 6.415539422144258 31.9832517694677 a53.6203546857824,53.6203546857824 0 0,0 -0.9065220205526022,0.17373710277949903 l -5.864049787019952 -32.08894607059567" fill="#bbff1f" stroke="none" /><path d="M 103.41894727170886 120.7198165907248 l 5.307640235251961 32.16584622815933 a53.60080840164024,53.60080840164024 0 0,0 -0.9116326877455798,0.14237827715271273 l -4.753171683897864 -32.25244281265915" fill="#bbff1f" stroke="none" /><path d="M 102.70371172650421 120.8252237178851 l 4.213178948827495 32.451830316341216 a53.72418322487891,53.72418322487891 0 0,0 -0.918101718017719,0.11116933222378496 l -3.653949807758395 -32.519545177290354" fill="#b9ff1f" stroke="none" /><path d="M 102.34483914955558 120.86867818915974 l 3.8387434525186075 34.16417786121397 a55.3791652054979,55.3791652054979 0 0,0 -0.9482163159566779,0.09828649817151412 l -3.250094539956327 -34.225193727841244" fill="#a2ff22" stroke="none" /><path d="M 101.62511606390274 120.93702456842531 l 2.2081412848888635 28.448373232645295 a49.53394167509845,49.53394167509845 0 0,0 -0.8506563796878573,0.058666244385403486 l -1.7181221444220762 -28.482167821546984" fill="#f5ff19" stroke="none" /><path d="M 100.90346689309514 120.98055641714683 l 1.1818584293101577 27.445441158640307 a48.47087602788304,48.47087602788304 0 0,0 -0.8338829069226243,0.028720613375179394 l -0.7092551707128812 -27.46171857044158" fill="#fff917" stroke="none" /><line stroke="#e1ed5e" stroke-width="0.3" x1="102.19456741930631" x2="102.32365962044197" y1="184.97166512339345" y2="189.96999836594603" /><path d="M 102.22038585953345 185.97133177190398 a86.0,86.0 0 0,1 -42.740103519485714,-10.115201625700543" fill="none" id="id55" stroke="none" /><text fill="#e1ed5e" style="font-size:6.75px; font-family:Arial;" text-anchor="middle"><textPath startOffset="22.20632615414155" xlink:href="#id55">July</textPath></text><path d="M 100.18074693466247 120.99922214144158 l 0.2377509253226785 27.621959423586656 a48.62298260327366,48.62298260327366 0 0,0 -0.8369957199702488,0.0 l 0.2377509253226594 -27.621959423586656" fill="#fffb17" stroke="none" /><path d="M 99.81925306533755 120.99922214144158 l -0.27154614722788534 31.548296395400275 a52.5494650154658,52.5494650154658 0 0,0 -0.904452139579255,-0.015570963810797167 l 0.8145579766998083 -31.53894795431032" fill="#caff1d" stroke="none" /><path d="M 99.09653310690486 120.98055641714683 l -1.3967911418977912 32.43666766267618 a53.46672811591871,53.46672811591871 0 0,0 -0.9191488948923159,-0.04750949897313601 l 1.954928105203596 -32.407818356940844" fill="#bdff1f" stroke="none" /><path d="M 98.37488393609728 120.93702456842531 l -2.483787772559653 31.999637916291515 a53.09588803060103,53.09588803060103 0 0,0 -0.9106088466085631,-0.07857116292758537 l 3.034240936909758 -31.95214250108527" fill="#c2ff1e" stroke="none" /><path d="M 97.65516085044442 120.86867818915974 l -3.627194644137661 32.28142867381716 a53.48456830880173,53.48456830880173 0 0,0 -0.9140068979030327,-0.11067350653390265 l 4.182328965092083 -32.214209638557904" fill="#bdff1f" stroke="none" /><path d="M 97.2962882734958 120.8252237178851 l -4.179930244379338 32.19573359505447 a53.46593720457791,53.46593720457791 0 0,0 -0.9116487361123652,-0.12634620786296571 l 4.733507571678533 -32.1190128216989" fill="#bdff1f" stroke="none" /><path d="M 96.22490169976321 120.6578951692458 l -5.912531322419202 32.35424418902066 a53.89004627058718,53.89004627058718 0 0,0 -0.9110815084899188,-0.1746109394943542 l 6.468580445480815 -32.24767605117784" fill="#b7ff1f" stroke="none" /><path d="M 95.51606077576429 120.51570834832081 l -7.115570208392994 32.556409850152114 a54.32493303401601,54.32493303401601 0 0,0 -0.9118306800034637,-0.20752969410296157 l 7.6749210377893196 -32.42910342247147" fill="#b1ff20" stroke="none" /><path d="M 95.16358092515715 120.4354850818985 l -7.33672079310638 31.000094490871138 a52.85644880458176,52.85644880458176 0 0,0 -0.8835753682374802,-0.21716132823086715 l 7.869249446087071 -30.869211904326242" fill="#c5ff1e" stroke="none" /><path d="M 94.46302465271185 120.25689768951611 l -7.758796959531707 28.385381249699677 a50.42666815917222,50.42666815917222 0 0,0 -0.8353269594717829,-0.23607174260219926 l 8.246255087108105 -28.247620713758955" fill="#e8ff1a" stroke="none" /><path d="M 93.76903079525671 120.05430185196036 l -9.35404291670165 30.10587823880202 a52.52557728919598,52.52557728919598 0 0,0 -0.8611159570212497,-0.27570213629255425 l 9.87088021881384 -29.94040325584976" fill="#caff1d" stroke="none" /><path d="M 93.08242187328487 119.8279376855182 l -10.520871200845974 30.15610011864021 a52.93867726112405,52.93867726112405 0 0,0 -0.8578093503855424,-0.30757991365341986 l 11.038400111861243 -29.970532663946834" fill="#c4ff1e" stroke="none" /><path d="M 92.40401165467489 119.57807347666478 l -11.93438914109791 30.759966561471153 a53.994017443075634,53.994017443075634 0 0,0 -0.863592975188447,-0.343641467355283 l 12.462103192328215 -30.549978249709806" fill="#b5ff1f" stroke="none" /><path d="M 92.06813273071674 119.44442032107085 l -11.37495135874493 27.884901227193463 a51.11573068786724,51.11573068786724 0 0,0 -0.8118359549069143,-0.3393474949929356 l 11.853258773149307 -27.684968689180554" fill="#deff1b" stroke="none" /><path d="M 91.40352486487194 119.15986991738527 l -13.281888911659603 29.602745288551244 a53.445817938226014,53.445817938226014 0 0,0 -0.8361267469092857,-0.3838247800788355 l 13.789483654336308 -29.369733438138333" fill="#bdff1f" stroke="none" /><path d="M 90.7491055286396 118.85261126421891 l -13.363644497869506 27.23407942567339 a51.33615131207854,51.33615131207854 0 0,0 -0.7899560329097509,-0.3961003541191833 l 13.830454438462016 -27.000011230644905" fill="#dbff1b" stroke="none" /><path d="M 90.42595943632237 118.69057910512821 l -22.99134978257271 44.88404232118488 a71.42994566638478,71.42994566638478 0 0,0 -1.0895076870943412,-0.569978928574448 l 23.760548372193547 -44.481633973665716" fill="#3aff92" stroke="none" /><line stroke="#e1ed5e" stroke-width="0.3" x1="58.666819895761336" x2="56.23545636021788" y1="174.27360380694188" y2="178.64263932499728" /><path d="M 58.180547188652646 175.14741091055294 a86.0,86.0 0 0,1 -31.652253787137756,-30.449443065178592" fill="none" id="id56" stroke="none" /><text fill="#e1ed5e" style="font-size:6.75px; font-family:Arial;" text-anchor="middle"><textPath startOffset="22.20632615414155" xlink:href="#id56">August</textPath></text><path d="M 89.7882731507175 118.34994917583269 l -14.712197251254363 26.437063565239388 a51.25503392680835,51.25503392680835 0 0,0 -0.7672420531613126,-0.43566006157256976 l 15.165088071336882 -26.179900337872184" fill="#dcff1b" stroke="none" /><path d="M 89.1626897886671 117.98757091392108 l -15.250892842221026 25.31315530796475 a50.55242061371712,50.55242061371712 0 0,0 -0.7414855734664569,-0.4554810004694342 l 15.684357615619792 -25.046885840666935" fill="#e6ff1a" stroke="none" /><path d="M 88.54995079064634 117.60387380957326 l -27.624324771931505 42.47100763221969 a71.66448271127626,71.66448271127626 0 0,0 -1.0283010401247676,-0.6815018578528111 l 28.351300510796236 -41.98920775327556" fill="#3aff95" stroke="none" /><path d="M 87.95078237400918 117.19931262002967 l -17.65934308623462 25.20732646984066 a51.77761696419123,51.77761696419123 0 0,0 -0.7255589381747313,-0.5176670376030554 l 18.09062935225824 -24.899615170393385" fill="#d5ff1c" stroke="none" /><path d="M 87.65650970185807 116.9893568818739 l -12.182553377996214 16.767846214649015 a41.72619775756871,41.72619775756871 0 0,0 -0.5774409616969841,-0.4271770187997253 l 12.469379310111762 -16.55565924710952" fill="#ff900d" stroke="none" /><path d="M 87.36589467227662 116.77436683061367 l -18.499210702718173 24.561497498622366 a51.748787878522876,51.748787878522876 0 0,0 -0.7069162179825095,-0.5420332114950417 l 18.91925564919417 -24.239424945299955" fill="#d5ff1c" stroke="none" /><path d="M 87.07902340077011 116.55440617244103 l -12.465094741921053 15.970328539099683 a41.259071562434684,41.259071562434684 0 0,0 -0.5560986220564506,-0.44179837781080505 l 12.738150856694862 -15.753396247283746" fill="#ff890c" stroke="none" /><path d="M 86.79598089348748 116.32954008644616 l -31.878694410051462 39.42469441109399 a71.70066751727823,71.70066751727823 0 0,0 -0.9530380051122801,-0.7842853957103428 l 32.55260254370843 -38.87011389652647" fill="#3aff96" stroke="none" /><path d="M 85.70375840098266 115.38237550388516 l -21.267419751278272 22.883177676249737 a52.24008584238967,52.24008584238967 0 0,0 -0.6534094551973038,-0.6178394236509043 l 21.658165040866393 -22.513703615852904" fill="#ceff1d" stroke="none" /><path d="M 85.18274418774928 114.88116024355367 l -26.433524656890064 26.547528179670174 a58.463348465357406,58.463348465357406 0 0,0 -0.7070150206391704,-0.7162024831635226 l 26.88658030258477 -26.088585202525984" fill="#7aff26" stroke="none" /><path d="M 84.67929136418377 114.36230785411684 l -36.7764435879195 34.47585990601409 a71.4092423989345,71.4092423989345 0 0,0 -0.8329500203772711,-0.9040027374925503 l 37.3644400162925 -33.8377059137202" fill="#3aff92" stroke="none" /><path d="M 84.19399662182784 113.82643327865904 l -30.345862430964615 26.545296248925546 a61.31778912120865,61.31778912120865 0 0,0 -0.6880950620462968,-0.8004100108051151 l 30.79830000258169 -26.019009138958904" fill="#55ff2b" stroke="none" /><path d="M 83.72743513129215 113.27417163493433 l -31.52365478188916 25.715085944434936 a61.681770560502876,61.681770560502876 0 0,0 -0.6640544512605545,-0.8285100309871389 l 31.961627145204574 -25.168648079869538" fill="#51ff2b" stroke="none" /><path d="M 82.85270091963577 112.12312394758628 l -42.8738185550829 30.311748457504255 a73.5068225285551,73.5068225285551 0 0,0 -0.7215537958776367,-1.0394520589868093 l 43.389233258122665 -29.569255136330433" fill="#3dffae" stroke="none" /><path d="M 82.6465618267979 111.8261652097733 l -34.60017500481446 23.579614702859782 a62.870876989849506,62.870876989849506 0 0,0 -0.6017548111935104,-0.899541795569354 l 35.0009329214187 -22.980535993084608" fill="#42ff2d" stroke="none" /><path d="M 82.24976979558568 111.22182372390057 l -36.09152728842268 22.81732419764918 a63.699281323595905,63.699281323595905 0 0,0 -0.5779507390420758,-0.93184061485737 l 36.47894266713271 -22.19268725142655" fill="#38ff2e" stroke="none" /><path d="M 82.05923443525364 110.91462005526583 l -27.60718806508115 16.79537963066238 a53.314727444291215,53.314727444291215 0 0,0 -0.47023367283900297,-0.7881386834684977 l 27.892202613618384 -16.317678853307772" fill="#bfff1e" stroke="none" /><line stroke="#e1ed5e" stroke-width="0.3" x1="26.63291911575756" x2="22.317208475507996" y1="142.92168965132927" y2="145.44649492493687" /><path d="M 25.769776987707644 143.4266507060508 a86.0,86.0 0 0,1 -11.730757126820373,-40.83630448921669" fill="none" id="id57" stroke="none" /><text fill="#e1ed5e" style="font-size:6.75px; font-family:Arial;" text-anchor="middle"><textPath startOffset="21.46611528233685" xlink:href="#id57">September</textPath></text><path d="M 81.69416730710424 110.29060199501025 l -44.23743210118267 24.868019645521468 a71.74809158970206,71.74809158970206 0 0,0 -0.5959314166703467,-1.0817886212377616 l 44.65893992730453 -24.102860505885882" fill="#3aff96" stroke="none" /><path d="M 81.35079622478065 109.6543875284942 l -45.048312205528056 23.32077383993556 a71.7268067697953,71.7268067697953 0 0,0 -0.5581757225858742,-1.1013336548064685 l 45.4430665979002 -22.541885973426407" fill="#3aff96" stroke="none" /><path d="M 81.02952815118164 109.00673069616217 l -46.22216591954833 21.945189552922365 a72.16717665464793,72.16717665464793 0 0,0 -0.523127434182938,-1.1267699536287166 l 46.5930679705711 -21.146299532014822" fill="#3bff9c" stroke="none" /><path d="M 80.58989483394504 108.01547362559985 l -46.72381501045301 19.294769590360293 a71.55099427979756,71.55099427979756 0 0,0 -0.46030248926120243,-1.142433029213902 l 47.049020113971594 -18.487637193303584" fill="#3aff94" stroke="none" /><path d="M 80.32549172779594 107.34259656027581 l -47.15662600929054 17.59902078057071 a71.33361609317431,71.33361609317431 0 0,0 -0.41942718867972933,-1.1540834864369462 l 47.45257745897549 -16.784689497127648" fill="#3aff91" stroke="none" /><path d="M 80.0844068197444 106.66101706037122 l -59.746779540766816 19.98305118111367 a84.0,84.0 0 0,0 -0.44683099593500275,-1.3752044000887818 l 60.081902787718064 -18.951647881047084" fill="#4dd2ff" stroke="none" /><path d="M 79.86692584326677 105.97154293290107 l -48.36018320564178 14.343806018261322 a71.44256229388776,71.44256229388776 0 0,0 -0.33954732174538976,-1.1820087714194536 l 48.59992316427328 -13.509239771337272" fill="#3aff92" stroke="none" /><path d="M 79.58551787078972 104.9243191809786 l -48.68153204098846 11.742810837501139 a71.07779116757368,71.07779116757368 0 0,0 -0.276659924997317,-1.1918437160254938 l 48.87645253191633 -10.903098464127071" fill="#39ff8d" stroke="none" /><line stroke="#e1ed5e" stroke-width="0.3" x1="15.007084014347285" x2="10.007500721073583" y1="101.09737516637583" y2="101.16192664675087" /><path d="M 14.007167355692545 101.11028546245083 a86.0,86.0 0 0,1 10.666146001902534,-42.60595125391555" fill="none" id="id58" stroke="none" /><text fill="#e1ed5e" style="font-size:6.75px; font-family:Arial;" text-anchor="middle"><textPath startOffset="22.20632615414155" xlink:href="#id58">October</textPath></text><path d="M 79.05617556472873 98.46500227214037 l -50.334148199543435 -3.6890494073246605 a71.4691545451604,71.4691545451604 0 0,0 0.10048398471095224,-1.226159130073703 l 50.263189731012986 4.5549224546061415" fill="#3aff93" stroke="none" /><path d="M 79.08570108090925 98.10471618934814 l -31.426817904291404 -2.847943381928903 a52.55559641483842,52.55559641483842 0 0,0 0.08940176025822791,-0.9002635251828515 l 31.373139018350948 3.3884824378161853" fill="#caff1d" stroke="none" /><path d="M 79.16333360222342 97.38593545837743 l -32.06515779325614 -4.0227352307098165 a53.31650883128945,53.31650883128945 0 0,0 0.12207957432746339,-0.9096346275904086 l 31.99116221987084 4.574088200364884" fill="#bfff1e" stroke="none" /><path d="M 81.43458229118936 90.18545643968196 l -28.753913390002726 -15.200656399013663 a53.524567486757654,53.524567486757654 0 0,0 0.4376064157290764,-0.8108182274496213 l 28.487998875055176 15.693355609795757" fill="#bcff1f" stroke="none" /><path d="M 81.6062741919709 89.86733742301443 l -26.71665900358431 -14.717566940653992 a51.502239999161276,51.502239999161276 0 0,0 0.43443944153213104,-0.7728192904300945 l 26.45936192075975 15.175269741018873" fill="#d9ff1c" stroke="none" /><line stroke="#e1ed5e" stroke-width="0.3" x1="26.266209847984243" x2="21.928928074336255" y1="57.71137044288968" y2="55.22380399835378" /><path d="M 25.398753493254645 57.2138571539825 a86.0,86.0 0 0,1 29.58750427330803,-30.4925239686951" fill="none" id="id59" stroke="none" /><text fill="#e1ed5e" style="font-size:6.75px; font-family:Arial;" text-anchor="middle"><textPath startOffset="21.46611528233685" xlink:href="#id59">November</textPath></text><path d="M 81.78341655067845 89.55222093294921 l -25.539688098044035 -14.647808104745815 a50.4420439239335,50.4420439239335 0 0,0 0.4384622437265232,-0.749474104153171 l 25.283766179847188 15.085261621252878" fill="#e8ff1a" stroke="none" /><path d="M 81.96595687620814 89.24020034530311 l -30.49695149630525 -18.195647305863694 a56.512612287008395,56.512612287008395 0 0,0 0.5056108117288143,-0.8310912330705736 l 30.179224886290218 18.717906312141345" fill="#93ff23" stroke="none" /><path d="M 82.15384107792192 88.93136811851018 l -23.85930724374638 -14.798136113294255 a49.0758147625153,49.0758147625153 0 0,0 0.4514330049458548,-0.7140586019537132 l 23.60104664255456 15.206642362962185" fill="#fcff18" stroke="none" /><path d="M 82.34701348167596 88.62581576622439 l -50.88537392277756 -32.78649860189105 a81.53326168176216,81.53326168176216 0 0,0 0.7703082594240365,-1.1732323269147713 l 50.31346902799561 33.65754899278349" fill="#49eeff" stroke="none" /><path d="M 82.7489923806493 88.02491185347247 l -22.09178668749432 -15.335399458074376 a47.89277813065171,47.89277813065171 0 0,0 0.47593420944761045,-0.6731751871265601 l 21.824539858242833 15.713401145532721" fill="#fff116" stroke="none" /><path d="M 82.95767976084542 87.72973835380427 l -28.44465600860723 -20.479803616162908 a56.05026122020483,56.05026122020483 0 0,0 0.5704779238635709,-0.7781312470339256 l 28.087915472230026 20.966397306868338" fill="#99ff23" stroke="none" /><path d="M 83.17141714833178 87.43820079747577 l -10.689631173204074 -7.979340954043664 a34.33934393739118,34.33934393739118 0 0,0 0.3576590817155635,-0.4706374272113692 l 10.550696151264402 8.16216315713606" fill="#ff1302" stroke="none" /><path d="M 83.39014120810768 87.1503855733568 l -14.309525994879541 -11.070045445057152 a39.09166770515543,39.09166770515543 0 0,0 0.4163186650016408,-0.5286824267297259 l 14.11685324928393 11.314720265739924" fill="#ff6509" stroke="none" /><path d="M 84.31358615837235 86.03803664274999 l -20.357582043709808 -18.119617230944787 a48.25347088468416,48.25347088468416 0 0,0 0.5575719796436729,-0.6156849061009881 l 20.04266642345009 18.46735492431533" fill="#fff617" stroke="none" /><path d="M 84.80347519578584 85.50635884689758 l -18.098750581534055 -17.26163051275479 a46.01057097651804,46.01057097651804 0 0,0 0.5515478553435146,-0.5684185473567237 l 17.798938462487424 17.570613255661634" fill="#ffd413" stroke="none" /><path d="M 85.31137513191541 84.99185889309783 l -9.102954143890617 -9.300967347734128 a34.01429090459376,34.01429090459376 0 0,0 0.42196632082324154,-0.40593126630848375 l 8.941504579454948 9.45628170080492" fill="#ff0d01" stroke="none" /><path d="M 85.83668400450813 84.49514656593479 l -11.720592422454953 -12.830757128374609 a38.37816489795871,38.37816489795871 0 0,0 0.49158593684670815,-0.44135070783205665 l 11.497995498012274 13.03060684497594" fill="#ff5908" stroke="none" /><path d="M 86.10567301691215 84.25364557470405 l -8.114903009121125 -9.196569151140288 a33.264931104541446,33.264931104541446 0 0,0 0.43261233201133825,-0.3751571512875212 l 7.955396878463013 9.33489129584749" fill="#ff0000" stroke="none" /><path d="M 86.65592168130627 83.78471172551755 l -8.735108176764522 -10.614618245802612 a34.74671725772754,34.74671725772754 0 0,0 0.4651040062946396,-0.37608176060802617 l 8.551100771905382 10.763406103674773" fill="#ff1a02" stroke="none" /><path d="M 87.22198572758235 83.33499621200491 l -34.54985849537199 -45.05970258171654 a77.78089043686248,77.78089043686248 0 0,0 1.0695014894162527,-0.8055263487371586 l 33.76911085219735 45.64774551995956" fill="#44ffe4" stroke="none" /><path d="M 87.51073957382395 83.11751280151077 l -8.162444141549575 -11.033668449996956 a34.72469795035123,34.72469795035123 0 0,0 0.48359050256097397,-0.35134906625003404 l 7.971308322634819 11.172536751063657" fill="#ff1a02" stroke="none" /><path d="M 87.80319425747018 82.90503203632743 l -10.676315739337857 -14.96385852056523 a39.38207767336233,39.38207767336233 0 0,0 0.5552288979800077,-0.3889733253763369 l 10.417155701774188 15.14541668870551" fill="#ff6a09" stroke="none" /><path d="M 88.09926311788651 82.69761687909137 l -7.860232171480525 -11.427926673570386 a34.870139070899,34.870139070899 0 0,0 0.49747285576345396,-0.33589589288246424 l 7.662354621310533 11.561534478751517" fill="#ff1c02" stroke="none" /><path d="M 89.00827224532344 82.1063720568725 l -11.861218909893747 -19.309087967114813 a43.661186909564094,43.661186909564094 0 0,0 0.6437695095791691,-0.38786392633524436 l 11.527087334096931 19.51039850290868" fill="#ffaf10" stroke="none" /><line stroke="#e1ed5e" stroke-width="0.3" x1="56.76296977257108" x2="54.21961505331056" y1="26.818313649435495" y2="22.513508569990535" /><path d="M 56.25429882871898 25.957352633546506 a86.0,86.0 0 0,1 42.26535254187918,-11.944610805530505" fill="none" id="id60" stroke="none" /><text fill="#e1ed5e" style="font-size:6.75px; font-family:Arial;" text-anchor="middle"><textPath startOffset="22.20632615414155" xlink:href="#id60">December</textPath></text><path d="M 89.3179101791058 81.91981866633112 l -6.875020073726799 -11.636450515746436 a34.51565320728384,34.51565320728384 0 0,0 0.5141242430634361,-0.29781394600603406 l 6.673699098198041 11.753068619142518" fill="#ff1602" stroke="none" /><path d="M 90.58718382345135 81.22770947309562 l -6.083245459779017 -12.132017557291313 a34.571725215842925,34.571725215842925 0 0,0 0.5342627705505358,-0.2621604212314085 l 5.873511422218057 12.234933138657551" fill="#ff1702" stroke="none" /><path d="M 91.23893434514133 80.91482961587045 l -11.712232397176003 -25.514013897916843 a49.07385425816258,49.07385425816258 0 0,0 0.7707349833379735,-0.34580632063823463 l 11.271315295371254 25.711840549071606" fill="#fcff18" stroke="none" /><path d="M 91.56875222667455 80.76684994638697 l -7.381872203672403 -16.83934093587052 a39.386284028749145,39.386284028749145 0 0,0 0.6232715191922626,-0.2668523373048669 l 7.090916926689832 16.96391280113817" fill="#ff6a09" stroke="none" /><path d="M 91.90106846888425 80.62456947434976 l -8.148857353661658 -19.494870269332182 a42.1294543940069,42.1294543940069 0 0,0 0.6714956167197519,-0.2739199223108148 l 7.812077867353525 19.632251077826574" fill="#ff970d" stroke="none" /><path d="M 92.23578459929587 80.48803036053334 l -10.446086247051635 -26.251682518395484 a49.25369980953773,49.25369980953773 0 0,0 0.790444096279352,-0.30668002907055303 l 9.992658985772605 26.427605251356585" fill="#f9ff18" stroke="none" /><path d="M 92.57280143429618 80.3572730644239 l -6.491220211279159 -17.16734310532959 a39.35357210810545,39.35357210810545 0 0,0 0.6356870096691932,-0.23412889044452154 l 6.194750875837397 17.276535263580435" fill="#ff6909" stroke="none" /><path d="M 93.25333710446033 80.11325718540243 l -12.087291147688676 -35.628999714535 a58.62350632181067,58.62350632181067 0 0,0 0.9584027019361103,-0.31597030244909563 l 11.472205623510156 35.83178374124333" fill="#77ff26" stroke="none" /><path d="M 93.94186890950719 79.89281104454417 l -6.779504887071801 -22.501458577334944 a44.500581367731115,44.500581367731115 0 0,0 0.7353398595998832,-0.214665869363837 l 6.391174809748496 22.61482277561748" fill="#ffbc11" stroke="none" /><path d="M 94.28887869178378 79.79150937346287 l -5.523336285481585 -19.54402358636452 a41.30950766677741,41.30950766677741 0 0,0 0.685938691358769,-0.18749295583253345 l 5.186099704899095 19.63620308302335" fill="#ff890c" stroke="none" /><path d="M 94.98787191387505 79.60689891045804 l -5.337690656845658 -21.717734119982243 a43.36405412384835,43.36405412384835 0 0,0 0.7264022418116438,-0.17191594152166173 l 4.963064728071481 21.806395973644776" fill="#ffab0f" stroke="none" /><path d="M 95.692805502759 79.44645832069477 l -6.77236270012181 -32.31710086774312 a54.01908395213114,54.01908395213114 0 0,0 0.9117227563071443,-0.1828830078728362 l 6.215073534347529 32.42888783169317" fill="#b5ff1f" stroke="none" /><path d="M 96.75951476605007 79.25152402106235 l -4.376598080126134 -28.02288348164252 a49.36259172538146,49.36259172538146 0 0,0 0.8406473336872614,-0.12388956476370075 l 3.893581766010223 28.09406753056719" fill="#f8ff18" stroke="none" /><path d="M 97.11714578562143 79.19881850522333 l -3.8973937323485344 -28.121572703482183 a49.39035979381353,49.39035979381353 0 0,0 0.8431293590371362,-0.10946238877765167 l 3.412749644803541 28.18449341542397" fill="#f7ff18" stroke="none" /><path d="M 97.47563105711357 79.15227682838746 l -2.8419242207469235 -23.470281392817054 a44.641714022770906,44.641714022770906 0 0,0 0.7636566709226876,-0.0858057248555886 l 2.4375008463145176 23.515723071143242" fill="#ffbf11" stroke="none" /></svg>