<?xml version="1.0" encoding="utf-8" ?>
<svg baseProfile="full" height="200mm" version="1.1" viewBox="0,0,200,200" width="200mm" xmlns="http://www.w3.org/2000/svg" xmlns:ev="http://www.w3.org/2001/xml-events" xmlns:xlink="http://www.w3.org/1999/xlink"><defs /><rect fill="#1a1a1a" height="200" width="200" x="0" y="0" /><text alignment-baseline="middle" fill="#e1ed5e" style="dominant-baseline: central; font-size:9.0px; font-family:Arial;" text-anchor="middle" x="100.0" y="100.0">2024</text><line stroke="#e1ed5e" stroke-width="0.3" x1="100.0" x2="100.0" y1="15.0" y2="10.0" /><path d="M 100.0 14.0 a86.0,86.0 0 0,1 42.35913384403234,11.155469271406648" fill="none" id="id61" stroke="none" /><text fill="#e1ed5e" style="font-size:6.75px; font-family:Arial;" text-anchor="middle"><textPath startOffset="22.145653131862478" xlink:href="#id61">January</textPath></text><path d="M 100.0 79.0 l 0.0 -7.917957894724587 a28.917957894724587,28.917957894724587 0 0,0 0.4964152010535856,0.004261127461722883 l -0.13592227620473082 7.916791165457299" fill="#ff4e07" stroke="none" /><path d="M 100.36049292484886 79.00309439819443 l 0.09193607186164351 -5.354815279909021 a26.3556044405143,26.3556044405143 0 0,0 0.4522956638085429,0.011649531896536197 l -0.18384504974092777 5.35244803066244" fill="#ff2903" stroke="none" /><path d="M 100.72087961077811 79.0123766808444 l 0.6961158450337501 -20.266653299146984 a41.27860481437351,41.27860481437351 0 0,0 0.7079757186893161,0.030403523592547072 l -1.0439173243239024 20.251717207128607" fill="#fff417" stroke="none" /><path d="M 101.44090949804482 79.04949213459386 l 0.7622240528706514 -11.082570443554436 a32.10875119638211,32.10875119638211 0 0,0 0.5495657485251212,0.04253986463255204 l -0.9523587961710062 11.06785281192683" fill="#ff7b0b" stroke="none" /><path d="M 101.80034050326958 79.07731436759882 l 1.2653781002566251 -14.70561160497873 a35.759952385190616,35.759952385190616 0 0,0 0.6111553583036219,0.057877047847183234 l -1.51763302194526 14.681722801626362" fill="#ffac0f" stroke="none" /><path d="M 102.15924093988457 79.11130261209362 l 1.6122485661865742 -15.597042363858511 a36.68014910449412,36.68014910449412 0 0,0 0.6257705022890444,0.07011889001384906 l -1.8797549700764151 15.567067713337691" fill="#ffb811" stroke="none" /><path d="M 102.87502721639298 79.19773525538626 l 1.6785739114882008 -12.145324642869923 a33.26077163383415,33.26077163383415 0 0,0 0.5649182004716573,0.0830235214426935 l -1.88681721756754 12.114720048128348" fill="#ff8a0c" stroke="none" /><path d="M 103.23170211078529 79.25015418208739 l 0.6070255207872426 -3.897539294181006 a24.944526908587644,24.944526908587644 0 0,0 0.4225394950991747,0.06952871312343381 l -0.6738425189394879 3.886544582561904" fill="#ff1402" stroke="none" /><path d="M 103.58742460773223 79.30868818359171 l 0.7436818052921497 -4.289359027175931 a25.353350834878604,25.353350834878604 0 0,0 0.4281882347250398,0.07803016006747295 l -0.8172047735682431 4.275960693177092" fill="#ff1a02" stroke="none" /><path d="M 103.94208987418118 79.37332000966035 l 0.8033971976709056 -4.203713621556011 a25.279796171464362,25.279796171464362 0 0,0 0.42554746627017676,0.08512141140591374 l -0.8754411494720392 4.189302813487237" fill="#ff1902" stroke="none" /><path d="M 104.29559338865022 79.4440306129975 l 1.7540676198144654 -8.393848540438412 a29.575164519395628,29.575164519395628 0 0,0 0.49607068944778304,0.1081162978861609 l -1.8979007258813825 8.362500784418533" fill="#ff5708" stroke="none" /><path d="M 104.64783097203109 79.52079915486377 l 6.254205090366794 -27.557181606439546 a49.2579783318386,49.2579783318386 0 0,0 0.8230019413533154,0.19422621724127634 l -6.726339185459994 27.44575924555204" fill="#aaff21" stroke="none" /><path d="M 104.9986988182912 79.60360301121754 l 0.6479337809397008 -2.6437909341788797 a23.72203025114146,23.72203025114146 0 0,0 0.394683419223614,0.1003269817691379 l -0.6932224933887092 2.632278720574474" fill="#ff0200" stroke="none" /><path d="M 105.3480935250658 79.69241777938227 l 2.7056602265803336 -10.273832582548053 a31.624134468083728,31.624134468083728 0 0,0 0.5237839117781798,0.14275963431874011 l -2.881625539293206 10.22587245408517" fill="#ff740a" stroke="none" /><path d="M 105.69591212413111 79.78721728523813 l 3.4045695757725403 -12.081616354444186 a33.552153111408785,33.552153111408785 0 0,0 0.5530353267882642,0.16098052360485213 l -3.6114649149424087 12.021392136536818" fill="#ff8e0d" stroke="none" /><path d="M 106.04205211174951 79.88797359093562 l 1.2192752387562347 -4.058570722039533 a25.237762194087885,25.237762194087885 0 0,0 0.4138504674710668,0.12821193271379555 l -1.2887663390989317 4.037042201519091" fill="#ff1802" stroke="none" /><path d="M 106.38641147887787 79.99465700312896 l 2.8695244934776674 -8.988744605605937 a30.43566110049943,30.43566110049943 0 0,0 0.49635818531334025,0.1631627944387886 l -3.02340541643875 8.938160889765129" fill="#ff6309" stroke="none" /><path d="M 106.72888874123014 80.10723608172694 l 0.8978778077350849 -2.6544161961378068 a23.802161647718037,23.802161647718037 0 0,0 0.38592850732854417,0.13424596827673838 l -0.9433120871086473 2.638611795292478" fill="#ff0300" stroke="none" /><path d="M 107.06938296918511 80.22567764915836 l 21.208148907555344 -59.32296705252493 a84.0,84.0 0 0,0 1.3536433933835013,0.49707660396511244 l -22.22338145259297 58.9501595995511" fill="#4dd2ff" stroke="none" /><path d="M 107.40779381753099 80.34994680014964 l 1.9698038619587175 -5.225138770622591 a26.58410265189053,26.58410265189053 0 0,0 0.4256339375373815,0.16464435069784555 l -2.0592100619896248 5.190554531786707" fill="#ff2c04" stroke="none" /><path d="M 108.73861861582097 80.90454125486305 l 3.467989009412152 -7.578181857933927 a29.334013921354007,29.334013921354007 0 0,0 0.45608983870345104,0.21347307383922615 l -3.597567561987108 7.517532552524168" fill="#ff5407" stroke="none" /><path d="M 109.06512990194946 81.05736502329252 l 1.197665557585282 -2.5026603840099413 a23.77447504683658,23.77447504683658 0 0,0 0.36662476538536976,0.1793345445512655 l -1.2404505722327186 2.4817320893614547" fill="#ff0200" stroke="none" /><path d="M 109.71004243097381 81.37971332152246 l 5.1294442954863 -9.836385779177009 a32.09349737356496,32.09349737356496 0 0,0 0.4863099907044308,0.2589326785309494 l -5.29754310197729 9.746882632923485" fill="#ff7a0b" stroke="none" /><line stroke="#e1ed5e" stroke-width="0.3" x1="143.13028292997686" x2="145.6673583964461" y1="26.7553504044142" y2="22.446841604673864" /><path d="M 143.63769802327073 25.89364864446614 a86.0,86.0 0 0,1 29.32050498858742,28.57503671076993" fill="none" id="id62" stroke="none" /><text fill="#e1ed5e" style="font-size:6.75px; font-family:Arial;" text-anchor="middle"><textPath startOffset="20.669276256404974" xlink:href="#id62">February</textPath></text><path d="M 110.65571695917076 81.90426304109057 l 2.546727976771031 -4.324900872473117 a26.01902290733834,26.01902290733834 0 0,0 0.38293465176381114,0.22994125577795957 l -2.6205953850922765 4.280545616159237" fill="#ff2403" stroke="none" /><path d="M 110.96478420261332 82.08984904055464 l 2.827001936769194 -4.617695206268914 a26.414337352667978,26.414337352667978 0 0,0 0.3846881846045547,0.24007387860836085 l -2.905854250163461 4.568485530819008" fill="#ff2a04" stroke="none" /><path d="M 111.27062007382361 82.28071324371311 l 4.4335099641633064 -6.970214050096493 a29.260744185997886,29.260744185997886 0 0,0 0.42151407271983804,0.2732203293484488 l -4.552509669140152 6.893079879044149" fill="#ff5307" stroke="none" /><path d="M 111.8722381534696 82.67804972795209 l 4.6769727734079725 -6.8238430494269435 a29.27278116998219,29.27278116998219 0 0,0 0.41205608613538275,0.28764715001085206 l -4.7934239507171155 6.742551083610965" fill="#ff5307" stroke="none" /><path d="M 112.45986205192187 83.09580414077388 l 6.165096718155089 -8.36413773928508 a31.390727484923257,31.390727484923257 0 0,0 0.4310201164854418,0.3234455308608532 l -6.307769823551298 8.257073181160212" fill="#ff710a" stroke="none" /><path d="M 113.03279911837588 83.53348406188908 l 3.461427030230561 -4.373399976796574 a26.577463979503143,26.577463979503143 0 0,0 0.35531440657887364,0.2862161345528033 l -3.5359922071646945 4.313335548450363" fill="#ff2c04" stroke="none" /><path d="M 113.31354834802062 83.75963576809568 l 3.5240352694169705 -4.298750028569022 a26.558603816446798,26.558603816446798 0 0,0 0.3501001516770658,0.2920659982723854 l -3.597309755255929 4.237621846384767" fill="#ff2c04" stroke="none" /><path d="M 113.86319453409587 84.22622945171908 l 7.280771674134151 -8.284181652342745 a32.028930221009034,32.028930221009034 0 0,0 0.409871128753278,0.3665092907219786 l -7.421907829710804 8.157976831737379" fill="#ff790b" stroke="none" /><path d="M 114.39649973595853 84.71141617570332 l 3.8041099967961243 -4.039832989236688 a26.549009231263653,26.549009231263653 0 0,0 0.3291160750435118,0.3152857549848728 l -3.872898557704948 3.9739351039462347" fill="#ff2c04" stroke="none" /><path d="M 114.91283532996326 85.21462403516908 l 21.525436216820825 -21.341459235000343 a51.31175162546043,51.31175162546043 0 0,0 0.6147959030970063,0.630834757140478 l -21.888618921068645 20.968801785792124" fill="#93ff23" stroke="none" /><path d="M 115.16444852881244 85.47280134310134 l 3.9977998925791796 -3.8298018631986475 a26.536224913464583,26.536224913464583 0 0,0 0.3122987229535853,0.33165042139868756 l -4.062954449269025 3.760609981855465" fill="#ff2b04" stroke="none" /><path d="M 115.41159269507618 85.73525988315684 l 6.05056418781945 -5.600311882567307 a29.2445630674371,29.2445630674371 0 0,0 0.33784753514452165,0.37135362330092136 l -6.14580942380585 5.495620683708714" fill="#ff5207" stroke="none" /><path d="M 116.1254893667686 86.54754324733833 l 5.960689980973206 -4.97261958141332 a28.762523465389947,28.762523465389947 0 0,0 0.3130364868923088,0.38185361498781945 l -6.045173287104142 4.869563684727005" fill="#ff4c07" stroke="none" /><path d="M 116.57777611688842 87.10902102172516 l 6.548011062213301 -5.091773007267897 a29.29473334281517,29.29473334281517 0 0,0 0.3052902126670457,0.39963468832864646 l -6.634453252234654 4.978617405698369" fill="#ff5307" stroke="none" /><path d="M 116.7966241395341 87.39550010848427 l 4.442199712299891 -3.3335094794428293 a26.553865656773887,26.553865656773887 0 0,0 0.27046753505839727,0.36694115610084205 l -4.498769266942114 3.256762014073112" fill="#ff2c04" stroke="none" /><path d="M 117.42321728460499 88.27688183743584 l 10.994710857559284 -7.397732143321357 a34.25179639541983,34.25179639541983 0 0,0 0.32404737461110217,0.49064902660838017 l -11.12008267109111 7.207903238373918" fill="#ff980e" stroke="none" /><path d="M 117.62189284568427 88.57770195909679 l 6.955830369293817 -4.508685207417893 a29.289259220580515,29.289259220580515 0 0,0 0.2698549278364574,0.42425676827105774 l -7.032202988756164 4.388614764468164" fill="#ff5307" stroke="none" /><path d="M 117.81537515405839 88.88188828441811 l 7.003863507764144 -4.370928832350191 a29.255853856074516,29.255853856074516 0 0,0 0.26223280585353204,0.428337580801297 l -7.077864278073077 4.25005413542434" fill="#ff5307" stroke="none" /><line stroke="#e1ed5e" stroke-width="0.3" x1="172.87174338648825" x2="177.1583165268699" y1="56.24261187166439" y2="53.66864786411523" /><path d="M 173.72905801456457 55.72781907015455 a86.0,86.0 0 0,1 12.242430191666344,42.057860355516425" fill="none" id="id63" stroke="none" /><text fill="#e1ed5e" style="font-size:6.75px; font-family:Arial;" text-anchor="middle"><textPath startOffset="22.145653131862474" xlink:href="#id63">March</textPath></text><path d="M 118.18653347947321 89.5 l 4.809160126457998 -2.7765698935865406 a26.55313978717308,26.55313978717308 0 0,0 0.22452150857739717,0.3967079924208238 l -4.856115000056771 2.693605131066599" fill="#ff2c04" stroke="none" /><path d="M 118.36410011445183 89.81374322990088 l 14.24577692567575 -7.901892319803332 a37.29055132430706,37.29055132430706 0 0,0 0.3057019917089169,0.5624572328114996 l -14.379324267000008 7.656180253517229" fill="#ffc011" stroke="none" /><line stroke="#e1ed5e" stroke-width="0.3" x1="184.99686870605535" x2="189.99668451229388" y1="99.2704041080226" y2="99.22748670261217" /><path d="M 185.99683186730306 99.26182062694052 a86.0,86.0 0 0,1 -10.086455211305974,41.156179273409016" fill="none" id="id64" stroke="none" /><text fill="#e1ed5e" style="font-size:6.75px; font-family:Arial;" text-anchor="middle"><textPath startOffset="21.40746469413373" xlink:href="#id64">April</textPath></text><line stroke="#e1ed5e" stroke-width="0.3" x1="174.33088141563837" x2="178.70328620479359" y1="141.23008692659167" y2="143.65538615756765" /><path d="M 175.20536237346943 141.71514677278685 a86.0,86.0 0 0,1 -30.301960400862466,31.631185727798858" fill="none" id="id65" stroke="none" /><text fill="#e1ed5e" style="font-size:6.75px; font-family:Arial;" text-anchor="middle"><textPath startOffset="22.145653131862474" xlink:href="#id65">May</textPath></text><path d="M 116.1254893667686 113.45245675266167 l 5.5970988189071 4.669298902449984 a28.289023763785647,28.289023763785647 0 0,0 -0.3142849065317915,0.3702268296362934 l -5.516119348868194 -4.764692514535834" fill="#ff4506" stroke="none" /><path d="M 115.89218393027572 113.72728997021213 l 9.334160040125925 8.06262512826029 a33.33419910709803,33.33419910709803 0 0,0 -0.3777700275852823,0.4298329451045667 l -9.194378948582056 -8.221670351176149" fill="#ff8b0c" stroke="none" /><path d="M 115.6541949942343 113.99807769240083 l 9.780218762768317 8.745531925489065 a34.120099378714855,34.120099378714855 0 0,0 -0.39417212175141764,0.4332642105972038 l -9.628648940175019 -8.912133711643941" fill="#ff960d" stroke="none" /><path d="M 115.41159269507618 114.26474011684316 l 6.6727560437064195 6.176203375591225 a30.09236830289474,30.09236830289474 0 0,0 -0.3541501559581104,0.37609519293286875 l -6.5657500540120495 -6.289840028468591" fill="#ff5e08" stroke="none" /><path d="M 115.16444852881244 114.52719865689866 l 2.8982461932643773 2.7764542921660147 a25.013543251698994,25.013543251698994 0 0,0 -0.2997017920053631,0.3075204408843268 l -2.850157600108207 -2.8257974251180786" fill="#ff1502" stroke="none" /><line stroke="#e1ed5e" stroke-width="0.3" x1="143.1302829299769" x2="145.66735839644613" y1="173.24464959558577" y2="177.55315839532614" /><path d="M 143.63769802327073 174.10635135553383 a86.0,86.0 0 0,1 -40.68552437913181,11.842963189579606" fill="none" id="id66" stroke="none" /><text fill="#e1ed5e" style="font-size:6.75px; font-family:Arial;" text-anchor="middle"><textPath startOffset="21.407464694133747" xlink:href="#id66">June</textPath></text><line stroke="#e1ed5e" stroke-width="0.3" x1="101.45913802915013" x2="101.54496967792366" y1="184.9874750549273" y2="189.98673829345242" /><path d="M 101.47630435890484 185.9873277026323 a86.0,86.0 0 0,1 -42.54439059252881,-10.42667462771756" fill="none" id="id67" stroke="none" /><text fill="#e1ed5e" style="font-size:6.75px; font-family:Arial;" text-anchor="middle"><textPath startOffset="22.145653131862474" xlink:href="#id67">July</textPath></text><path d="M 97.84075906011543 120.88869738790638 l -0.6034046278869735 5.837392410254621 a26.868496169910454,26.868496169910454 0 0,0 -0.4583817883645403,-0.05136263547916293 l 0.7035223178523131 -5.826174014268487" fill="#ff3004" stroke="none" /><path d="M 97.12497278360702 120.80226474461374 l -0.7715492991092571 5.582546381501152 a26.635611095752402,26.635611095752402 0 0,0 -0.45239303688820304,-0.06648619741274854 l 0.867267441605145 -5.5684791107895215" fill="#ff2d04" stroke="none" /><path d="M 96.76829788921471 120.74984581791261 l -0.543598478205032 3.4902921813129164 a24.53237014148304,24.53237014148304 0 0,0 -0.41555790298832457,-0.06837989479839945 l 0.6034338842464202 -3.4804462880188485" fill="#ff0e01" stroke="none" /><path d="M 96.41257539226777 120.69131181640829 l -1.1920987055641399 6.875708545790697 a27.97828541480405,27.97828541480405 0 0,0 -0.4725202881631452,-0.086108936982296 l 1.3099537272783424 -6.854231434877034" fill="#ff4006" stroke="none" /><path d="M 95.00130118170881 120.39639698878247 l -1.2109583917581659 4.941123478937777 a26.087349158518577,26.087349158518577 0 0,0 -0.43403722427465535,-0.11033056512125591 l 1.2956009092582 -4.919607681981257" fill="#ff2503" stroke="none" /><path d="M 94.30408787586889 120.21278271476187 l -1.4433985189466256 5.122112139103229 a26.321600515826603,26.321600515826603 0 0,0 -0.4338551655545006,-0.12628891561998473 l 1.531113696882733 -5.096579529180729" fill="#ff2803" stroke="none" /><path d="M 93.27111125876986 119.89276391827306 l -1.901790828617195 5.622306658722163 a26.935245615854836,26.935245615854836 0 0,0 -0.4367283647975335,-0.15191679570913566 l 1.9980249654597502 -5.588831430444436" fill="#ff3104" stroke="none" /><path d="M 92.93061703081489 119.77432235084164 l -1.8291795791375651 5.116540834342788 a26.43368089256547,26.43368089256547 0 0,0 -0.4259735417027328,-0.1564233848615973 l 1.9167422724944168 -5.084386600472471" fill="#ff2a04" stroke="none" /><line stroke="#e1ed5e" stroke-width="0.3" x1="58.13341422392154" x2="55.67067388415222" y1="173.97424548756322" y2="178.32567169271397" /><path d="M 57.64086615596768 174.84453072859336 a86.0,86.0 0 0,1 -31.369924170532247,-30.572349798747897" fill="none" id="id68" stroke="none" /><text fill="#e1ed5e" style="font-size:6.75px; font-family:Arial;" text-anchor="middle"><textPath startOffset="22.145653131862474" xlink:href="#id68">August</textPath></text><path d="M 89.03521579738668 117.91015095944536 l -4.949160346806915 8.084081482669442 a30.478742614758822,30.478742614758822 0 0,0 -0.4438806095704228,-0.27701432963988126 l 5.08720508516705 -7.997931356188013" fill="#ff6409" stroke="none" /><path d="M 88.72937992617639 117.7192867562869 l -6.221727838807498 9.78158956413143 a32.5926438615752,32.5926438615752 0 0,0 -0.46951157385032743,-0.3043317296918771 l 6.388725044914835 -9.673343992735658" fill="#ff810b" stroke="none" /><path d="M 88.4268655584334 117.5232005979908 l -5.578935599138864 8.447219560144406 a31.12324259892181,31.12324259892181 0 0,0 -0.44328939941880524,-0.29826489130630024 l 5.723121286654676 -8.350204994780986" fill="#ff6d0a" stroke="none" /><path d="M 84.3458050057657 113.99807769240083 l -4.526563884934111 4.047681338086123 a27.072355788248945,27.072355788248945 0 0,0 -0.30680576905618123,-0.3490886456277141 l 4.595380717948886 -3.9693804146471092" fill="#ff3304" stroke="none" /><path d="M 83.8745106332314 113.45245675266167 l -5.269808460924384 4.3962616453358505 a27.862798093276627,27.862798093276627 0 0,0 -0.303244339482391,-0.36990878732862104 l 5.344499619645405 -4.305150576308734" fill="#ff3f05" stroke="none" /><path d="M 83.4222238831116 112.89097897827486 l -5.049494666785957 3.92651759448821 a27.396478469417787,27.396478469417787 0 0,0 -0.2855078638327481,-0.3737389586826175 l 5.116154507973 -3.839257722564722" fill="#ff3805" stroke="none" /><path d="M 82.98947788004972 112.3143062007846 l -5.28891233171736 3.828764658874775 a27.529320980442026,27.529320980442026 0 0,0 -0.2738314047874629,-0.38517816367989105 l 5.353858835034783 -3.7374092684853797" fill="#ff3a05" stroke="none" /><path d="M 82.18462484594161 111.11811171558189 l -5.565922574951288 3.4735473406233983 a27.560870768267293,27.560870768267293 0 0,0 -0.24703994314726133,-0.40352118135856463 l 5.624730482553954 -3.377489043140277" fill="#ff3a05" stroke="none" /><path d="M 81.99639281039703 110.81064883170644 l -7.820310981562328 4.695872048643174 a30.121868128052093,30.121868128052093 0 0,0 -0.2623848371726142,-0.4455868163235652 l 7.899769528864712 -4.560934064026051" fill="#ff5f08" stroke="none" /><line stroke="#e1ed5e" stroke-width="0.3" x1="26.387840678322732" x2="22.057713659400548" y1="142.50000000000003" y2="145.00000000000006" /><path d="M 25.521815274538298 143.00000000000003 a86.0,86.0 0 0,1 -11.493303480769221,-40.785679425670985" fill="none" id="id69" stroke="none" /><text fill="#e1ed5e" style="font-size:6.75px; font-family:Arial;" text-anchor="middle"><textPath startOffset="21.40746469413373" xlink:href="#id69">September</textPath></text><path d="M 81.63589988554817 110.18625677009913 l -5.581098015986091 3.0957409889737004 a27.38218358674018,27.38218358674018 0 0,0 -0.22447477343543404,-0.41300830000054517 l 5.633418139036855 -2.999477855498568" fill="#ff3805" stroke="none" /><path d="M 81.1358732173502 109.22738970284198 l -5.87948692364509 2.8759516792017665 a27.545186364529055,27.545186364529055 0 0,0 -0.204123921032406,-0.426540487334838 l 5.927990102637408 -2.774598689801824" fill="#ff3a05" stroke="none" /><path d="M 80.9802524753101 108.90220220490708 l -5.316785668397136 2.4885241530562867 a26.87034601229073,26.87034601229073 0 0,0 -0.19195092078874304,-0.4194474035491667 l 5.358721054040935 -2.3968877672924314" fill="#ff3004" stroke="none" /><path d="M 80.83023694016515 108.57439118712176 l -7.484172722967164 3.347575264149334 a29.198725601967066,29.198725601967066 0 0,0 -0.2007288888194169,-0.459306980025558 l 7.540535493803549 -3.218606214347927" fill="#ff5207" stroke="none" /><path d="M 80.41425534168474 107.57618678355246 l -7.732449692192573 2.9910776528786247 a29.290797535089066,29.290797535089066 0 0,0 -0.17737574728890862,-0.4705102431903188 l 7.782656123295918 -2.857899129494161" fill="#ff5307" stroke="none" /><path d="M 79.64726062577567 105.17358676015961 l -7.695955989336901 1.9562819176876447 a28.940703843569672,28.940703843569672 0 0,0 -0.11826063719886305,-0.4825437563127574 l 7.7284041530520575 -1.8238823367667878" fill="#ff4e07" stroke="none" /><path d="M 79.48165901384964 104.47187691870673 l -8.36277085379239 1.82262698445017 a29.55908321477747,29.55908321477747 0 0,0 -0.10379783153289168,-0.4967101991228844 l 8.39282639614965 -1.6788003340418765" fill="#ff5708" stroke="none" /><path d="M 79.34024301695615 103.76489593502545 l -8.41108387367665 1.5327796697295824 a29.549604987714915,29.549604987714915 0 0,0 -0.08665799124765743,-0.49982026505146393 l 8.436156682416543 -1.3881663717575257" fill="#ff5708" stroke="none" /><path d="M 79.2786578344484 103.40968896794605 l -2.5766053354249108 0.4239794274308471 a23.611255178917737,23.611255178917737 0 0,0 -0.06237700981280758,-0.40050514924584546 l 2.5835038373759858 -0.3796860962535517" fill="#ff0000" stroke="none" /><line stroke="#e1ed5e" stroke-width="0.3" x1="15.003131293944662" x2="10.003315487706104" y1="100.72959589197737" y2="100.7725132973878" /><path d="M 14.003168132696942 100.73817937305945 a86.0,86.0 0 0,1 10.791469493833604,-42.45332614584628" fill="none" id="id70" stroke="none" /><text fill="#e1ed5e" style="font-size:6.75px; font-family:Arial;" text-anchor="middle"><textPath startOffset="22.145653131862435" xlink:href="#id70">October</textPath></text><line stroke="#e1ed5e" stroke-width="0.3" x1="26.387840678322718" x2="22.05771365940052" y1="57.49999999999999" y2="54.99999999999999" /><path d="M 25.521815274538284 56.99999999999999 a86.0,86.0 0 0,1 29.574782752854787,-30.34633250058573" fill="none" id="id71" stroke="none" /><text fill="#e1ed5e" style="font-size:6.75px; font-family:Arial;" text-anchor="middle"><textPath startOffset="21.40746469413373" xlink:href="#id71">November</textPath></text><line stroke="#e1ed5e" stroke-width="0.3" x1="56.869717070023135" x2="54.33264160355391" y1="26.7553504044142" y2="22.446841604673864" /><path d="M 56.362301976729285 25.89364864446614 a86.0,86.0 0 0,1 42.16139366436587,-11.88097634709845" fill="none" id="id72" stroke="none" /><text fill="#e1ed5e" style="font-size:6.75px; font-family:Arial;" text-anchor="middle"><textPath startOffset="22.145653131862474" xlink:href="#id72">December</textPath></text></svg>