<?xml version="1.0" encoding="utf-8" ?>
<svg baseProfile="full" height="200mm" version="1.1" viewBox="0,0,200,200" width="200mm" xmlns="http://www.w3.org/2000/svg" xmlns:ev="http://www.w3.org/2001/xml-events" xmlns:xlink="http://www.w3.org/1999/xlink"><defs /><rect fill="#1a1a1a" height="200" width="200" x="0" y="0" /><text alignment-baseline="middle" fill="#e1ed5e" style="dominant-baseline: central; font-size:9.0px; font-family:Arial;" text-anchor="middle" x="100.0" y="100.0">2021</text><line stroke="#e1ed5e" stroke-width="0.3" x1="100.0" x2="100.0" y1="15.0" y2="10.0" /><path d="M 100.0 14.0 a86.0,86.0 0 0,1 42.46469731375804,11.215312516191453" fill="none" id="id25" stroke="none" /><text fill="#e1ed5e" style="font-size:6.75px; font-family:Arial;" text-anchor="middle"><textPath startOffset="22.20632615414155" xlink:href="#id25">January</textPath></text><line stroke="#e1ed5e" stroke-width="0.3" x1="143.23703022742887" x2="145.7803849466894" y1="26.81831364943548" y2="22.513508569990506" /><path d="M 143.74570117128098 25.957352633546492 a86.0,86.0 0 0,1 28.547481713284135,27.462654790039103" fill="none" id="id26" stroke="none" /><text fill="#e1ed5e" style="font-size:6.75px; font-family:Arial;" text-anchor="middle"><textPath startOffset="19.985693538727396" xlink:href="#id26">February</textPath></text><line stroke="#e1ed5e" stroke-width="0.3" x1="172.23445277983987" x2="176.4835382374775" y1="55.19839476539836" y2="52.563006222186495" /><path d="M 173.08426987136738 54.67131705675599 a86.0,86.0 0 0,1 12.851231095245387,41.99856678651699" fill="none" id="id27" stroke="none" /><text fill="#e1ed5e" style="font-size:6.75px; font-family:Arial;" text-anchor="middle"><textPath startOffset="22.20632615414155" xlink:href="#id27">March</textPath></text><path d="M 120.73433829027371 96.67025291283417 l 33.87131688781113 -5.439426962497535 a55.305298036817355,55.305298036817355 0 0,0 0.1428564990514476,0.9412458384656632 l -33.95992928030188 4.85558201163979" fill="#e9ff1a" stroke="none" /><path d="M 120.83666639777658 97.38593545837742 l 23.050644119118 -2.8918191760164222 a44.23133255870196,44.23133255870196 0 0,0 0.08827235874838398,0.756263662735131 l -23.097006830869976 2.4946117749564385" fill="#ff4806" stroke="none" /><path d="M 120.94382443527127 98.46500227214037 l 45.26742648503123 -3.3177033647950336 a66.38884286027216,66.38884286027216 0 0,0 0.0737213609239179,1.140436823646323 l -45.317828436959566 2.5380074768956757" fill="#3cff2e" stroke="none" /><path d="M 120.98425023603335 99.18683210126433 l 49.748400974987156 -1.9278173978703346 a70.78573972020135,70.78573972020135 0 0,0 0.03670175058365399,1.2179524236910826 l -49.77421442002645 1.0711948267542528" fill="#36ff6a" stroke="none" /><line stroke="#e1ed5e" stroke-width="0.3" x1="184.98032266829074" x2="189.97916517819016" y1="98.17113171792111" y2="98.06355123074" /><path d="M 185.9800911702706 98.14961562048488 a86.0,86.0 0 0,1 -9.607161424134198,41.387399972396054" fill="none" id="id28" stroke="none" /><text fill="#e1ed5e" style="font-size:6.75px; font-family:Arial;" text-anchor="middle"><textPath startOffset="21.466115282336823" xlink:href="#id28">April</textPath></text><path d="M 120.99513854157772 99.54816195383933 l 30.99183939120528 -0.6669778401183679 a51.99901560194246,51.99901560194246 0 0,0 0.011556144557145879,0.8950361312690717 l -30.99872854288014 0.1334054507888336" fill="#ffdc14" stroke="none" /><path d="M 120.99980553446 99.90962569577887 l 62.99941660337998 -0.27112291266339017 a84.0,84.0 0 0,0 -0.006222810841987947,1.4459620871852612 l -62.994749495248485 -0.8133486527255557" fill="#4dd2ff" stroke="none" /><path d="M 120.99824983174949 100.27111621757518 l 19.694760941480062 0.2542863874506391 a40.69640246615842,40.69640246615842 0 0,0 -0.015073050825118485,0.7003854434273304 l -19.687465827969937 -0.5932616466680843" fill="#ff0000" stroke="none" /><path d="M 120.95626037817324 101.35467743843564 l 54.110225770076184 3.497852227286115 a75.22316389784487,75.22316389784487 0 0,0 -0.09465023134941028,1.2914272068037818 l -54.04199898006244 -4.428752570586666" fill="#3dffb0" stroke="none" /><path d="M 120.81339534386255 102.79330883721812 l 42.53406836619163 5.708380929071114 a63.91541197065742,63.91541197065742 0 0,0 -0.15572822419731264,1.089162837330348 l -42.42950609097772 -6.439689238381872" fill="#60ff29" stroke="none" /><path d="M 120.70491114924044 103.5080841355445 l 54.622675513387776 9.254854562200828 a76.40116436690064,76.40116436690064 0 0,0 -0.2308536042146786,1.2947496104918725 l -54.4552754668339 -10.193722923425918" fill="#3fffc2" stroke="none" /><path d="M 120.5718875245553 104.21870165774334 l 44.057931651290076 9.035012906432755 a65.97480182957068,65.97480182957068 0 0,0 -0.2377165143047065,1.1105324149290516 l -43.89588109826092 -9.792059140777976" fill="#42ff2d" stroke="none" /><path d="M 120.23288151984713 105.62410040840565 l 43.15084119874097 11.994567524691384 a65.78688140810144,65.78688140810144 0 0,0 -0.3126673886109284,1.0884361978624497 l -42.93798117324394 -12.735561198058415" fill="#45ff2d" stroke="none" /><path d="M 119.9155931802556 106.66101706037122 l 43.2629727933272 14.469837641814596 a66.6186476815857,66.6186476815857 0 0,0 -0.3730935141674742,1.0843843933734612 l -43.0074884482165 -15.212394738277357" fill="#39ff2e" stroke="none" /><path d="M 119.67450827220406 107.3425965602758 l 40.397091421906026 15.076338397676496 a64.11868475302892,64.11868475302892 0 0,0 -0.39480536778605896,1.03071223325131 l -40.13159177452646 -15.769474197760951" fill="#5dff2a" stroke="none" /><line stroke="#e1ed5e" stroke-width="0.3" x1="174.80103733775053" x2="179.2010983576182" y1="140.37084112569926" y2="142.7455964860345" /><path d="M 175.68104954172406 140.8457921977663 a86.0,86.0 0 0,1 -30.038265399797805,32.042727171017184" fill="none" id="id29" stroke="none" /><text fill="#e1ed5e" style="font-size:6.75px; font-family:Arial;" text-anchor="middle"><textPath startOffset="22.206326154141568" xlink:href="#id29">May</textPath></text><path d="M 116.93607887273984 112.41649034213513 l 36.336834526142496 26.63992995945594 a66.05609183700889,66.05609183700889 0 0,0 -0.6801850298051251,0.9112190016729215 l -35.87288822964228 -27.261461840638177" fill="#41ff2d" stroke="none" /><path d="M 116.498646956653 112.99209946851258 l 31.186748528686927 24.558458645046723 a60.695480533834406,60.695480533834406 0 0,0 -0.6534362365677738,0.815262175532746 l -30.759394380064297 -25.09164865415772" fill="#91ff24" stroke="none" /><path d="M 116.0416608686014 113.55231037782055 l 33.519985225824875 28.31834230640634 a64.88072379214273,64.88072379214273 0 0,0 -0.7280775498136987,0.8469186768762706 l -33.0275651664404 -28.89113808244414" fill="#52ff2b" stroke="none" /><path d="M 115.80600337817218 113.82643327865902 l 29.139595940229395 25.490104575775206 a59.71513247870643,59.71513247870643 0 0,0 -0.6834287444444913,0.7678394393617616 l -28.696508346136568 -25.98791818487783" fill="#a0ff22" stroke="none" /><line stroke="#e1ed5e" stroke-width="0.3" x1="143.8653032363475" x2="146.44561519142675" y1="172.8068346515853" y2="177.08958963109032" /><path d="M 144.38136562736335 173.6633856474863 a86.0,86.0 0 0,1 -40.68145358897372,12.25698825130547" fill="none" id="id30" stroke="none" /><text fill="#e1ed5e" style="font-size:6.75px; font-family:Arial;" text-anchor="middle"><textPath startOffset="21.466115282336833" xlink:href="#id30">June</textPath></text><path d="M 110.8373102113329 117.98757091392108 l 22.444095844557143 37.252303175804265 a64.49105115057239,64.49105115057239 0 0,0 -0.9557946261528644,0.5647003123735276 l -21.7995333473759 -37.63312206047154" fill="#58ff2a" stroke="none" /><line stroke="#e1ed5e" stroke-width="0.3" x1="102.19456741930631" x2="102.32365962044197" y1="184.97166512339345" y2="189.96999836594603" /><path d="M 102.22038585953345 185.97133177190398 a86.0,86.0 0 0,1 -42.740103519485714,-10.115201625700543" fill="none" id="id31" stroke="none" /><text fill="#e1ed5e" style="font-size:6.75px; font-family:Arial;" text-anchor="middle"><textPath startOffset="22.20632615414155" xlink:href="#id31">July</textPath></text><line stroke="#e1ed5e" stroke-width="0.3" x1="58.666819895761336" x2="56.23545636021788" y1="174.27360380694188" y2="178.64263932499728" /><path d="M 58.180547188652646 175.14741091055294 a86.0,86.0 0 0,1 -31.652253787137756,-30.449443065178592" fill="none" id="id32" stroke="none" /><text fill="#e1ed5e" style="font-size:6.75px; font-family:Arial;" text-anchor="middle"><textPath startOffset="22.20632615414155" xlink:href="#id32">August</textPath></text><line stroke="#e1ed5e" stroke-width="0.3" x1="26.63291911575756" x2="22.317208475507996" y1="142.92168965132927" y2="145.44649492493687" /><path d="M 25.769776987707644 143.4266507060508 a86.0,86.0 0 0,1 -11.730757126820373,-40.83630448921669" fill="none" id="id33" stroke="none" /><text fill="#e1ed5e" style="font-size:6.75px; font-family:Arial;" text-anchor="middle"><textPath startOffset="21.46611528233685" xlink:href="#id33">September</textPath></text><line stroke="#e1ed5e" stroke-width="0.3" x1="15.007084014347285" x2="10.007500721073583" y1="101.09737516637583" y2="101.16192664675087" /><path d="M 14.007167355692545 101.11028546245083 a86.0,86.0 0 0,1 10.666146001902534,-42.60595125391555" fill="none" id="id34" stroke="none" /><text fill="#e1ed5e" style="font-size:6.75px; font-family:Arial;" text-anchor="middle"><textPath startOffset="22.20632615414155" xlink:href="#id34">October</textPath></text><line stroke="#e1ed5e" stroke-width="0.3" x1="26.266209847984243" x2="21.928928074336255" y1="57.71137044288968" y2="55.22380399835378" /><path d="M 25.398753493254645 57.2138571539825 a86.0,86.0 0 0,1 29.58750427330803,-30.4925239686951" fill="none" id="id35" stroke="none" /><text fill="#e1ed5e" style="font-size:6.75px; font-family:Arial;" text-anchor="middle"><textPath startOffset="21.46611528233685" xlink:href="#id35">November</textPath></text><line stroke="#e1ed5e" stroke-width="0.3" x1="56.76296977257108" x2="54.21961505331056" y1="26.818313649435495" y2="22.513508569990535" /><path d="M 56.25429882871898 25.957352633546506 a86.0,86.0 0 0,1 42.26535254187918,-11.944610805530505" fill="none" id="id36" stroke="none" /><text fill="#e1ed5e" style="font-size:6.75px; font-family:Arial;" text-anchor="middle"><textPath startOffset="22.20632615414155" xlink:href="#id36">December</textPath></text><path d="M 93.25333710446033 80.11325718540243 l -15.292511957392396 -45.076841246489195 a68.60023675075765,68.60023675075765 0 0,0 1.1215066511796508,-0.3697431101310996 l 14.514322483970336 45.333398080879526" fill="#32ff45" stroke="none" /><path d="M 93.59665428221793 80.00007090966166 l -12.304093282593204 -38.430065159437824 a61.351711483720145,61.351711483720145 0 0,0 1.0085480101624453,-0.3133607761176214 l 11.64075989972003 38.63616607043797" fill="#87ff25" stroke="none" /><path d="M 94.28887869178378 79.79150937346287 l -14.079958017925714 -49.821161952547904 a72.77251583696274,72.77251583696274 0 0,0 1.2083776132785273,-0.33029524843781327 l 13.220282515423465 50.056143741812015" fill="#39ff8a" stroke="none" /><path d="M 94.98787191387505 79.60689891045804 l -9.20759793539958 -37.46342317313644 a59.57833505465822,59.57833505465822 0 0,0 0.9980117639256437,-0.2361971400543401 l 8.561362484511402 37.61636622533165" fill="#a2ff22" stroke="none" /><path d="M 95.692805502759 79.44645832069477 l -9.553289397021208 -45.58743096507845 a67.57766847212332,67.57766847212332 0 0,0 1.1405616988768648,-0.22878594694732268 l 8.767161288677208 45.74512086810298" fill="#30ff34" stroke="none" /><path d="M 96.40284397218896 79.31037775812273 l -6.68163431925227 -38.43049591257662 a60.00701543649267,60.00701543649267 0 0,0 1.0191785634747612,-0.16817319563224206 l 6.0191265496386235 38.539815371148485" fill="#9cff22" stroke="none" /><path d="M 97.11714578562143 79.19881850522333 l -5.312790381040154 -38.33434115694335 a59.70074228706465,59.70074228706465 0 0,0 1.0191350860505153,-0.13231298354217721 l 4.652140566481781 38.420112463649666" fill="#a0ff22" stroke="none" /><path d="M 98.19473922651362 79.07773832637324 l -4.04072555459958 -46.830418433883295 a68.00442057615635,68.00442057615635 0 0,0 1.1671171591607958,-0.09059075407826289 l 3.2340182060764495 46.89303445015002" fill="#31ff3b" stroke="none" /><path d="M 99.27714615592234 79.0124445844662 l -1.3912395701941156 -40.39366714994654 a61.417618600832284,61.417618600832284 0 0,0 1.0568900710523974,-0.027296352405849832 l 0.6957228639468391 40.41163029449475" fill="#86ff25" stroke="none" /></svg>