<?xml version="1.0" encoding="utf-8" ?>
<svg baseProfile="full" height="200mm" version="1.1" viewBox="0,0,200,200" width="200mm" xmlns="http://www.w3.org/2000/svg" xmlns:ev="http://www.w3.org/2001/xml-events" xmlns:xlink="http://www.w3.org/1999/xlink"><defs /><rect fill="#1a1a1a" height="200" width="200" x="0" y="0" /><text alignment-baseline="middle" fill="#e1ed5e" style="dominant-baseline: central; font-size:9.0px; font-family:Arial;" text-anchor="middle" x="100.0" y="100.0">2020</text><line stroke="#e1ed5e" stroke-width="0.3" x1="100.0" x2="100.0" y1="15.0" y2="10.0" /><path d="M 100.0 14.0 a86.0,86.0 0 0,1 42.35913384403234,11.155469271406648" fill="none" id="id13" stroke="none" /><text fill="#e1ed5e" style="font-size:6.75px; font-family:Arial;" text-anchor="middle"><textPath startOffset="22.145653131862478" xlink:href="#id13">January</textPath></text><line stroke="#e1ed5e" stroke-width="0.3" x1="143.13028292997686" x2="145.6673583964461" y1="26.7553504044142" y2="22.446841604673864" /><path d="M 143.63769802327073 25.89364864446614 a86.0,86.0 0 0,1 29.32050498858742,28.57503671076992" fill="none" id="id14" stroke="none" /><text fill="#e1ed5e" style="font-size:6.75px; font-family:Arial;" text-anchor="middle"><textPath startOffset="20.669276256404974" xlink:href="#id14">February</textPath></text><line stroke="#e1ed5e" stroke-width="0.3" x1="172.87174338648825" x2="177.1583165268699" y1="56.24261187166439" y2="53.66864786411523" /><path d="M 173.72905801456457 55.72781907015455 a86.0,86.0 0 0,1 12.242430191666344,42.057860355516425" fill="none" id="id15" stroke="none" /><text fill="#e1ed5e" style="font-size:6.75px; font-family:Arial;" text-anchor="middle"><textPath startOffset="22.145653131862474" xlink:href="#id15">March</textPath></text><line stroke="#e1ed5e" stroke-width="0.3" x1="184.99686870605535" x2="189.99668451229388" y1="99.2704041080226" y2="99.22748670261217" /><path d="M 185.99683186730306 99.26182062694052 a86.0,86.0 0 0,1 -10.086455211305974,41.156179273409016" fill="none" id="id16" stroke="none" /><text fill="#e1ed5e" style="font-size:6.75px; font-family:Arial;" text-anchor="middle"><textPath startOffset="21.40746469413373" xlink:href="#id16">April</textPath></text><line stroke="#e1ed5e" stroke-width="0.3" x1="174.33088141563837" x2="178.70328620479359" y1="141.23008692659167" y2="143.65538615756765" /><path d="M 175.20536237346943 141.71514677278685 a86.0,86.0 0 0,1 -30.301960400862466,31.63118572779886" fill="none" id="id17" stroke="none" /><text fill="#e1ed5e" style="font-size:6.75px; font-family:Arial;" text-anchor="middle"><textPath startOffset="22.145653131862474" xlink:href="#id17">May</textPath></text><line stroke="#e1ed5e" stroke-width="0.3" x1="143.1302829299769" x2="145.6673583964461" y1="173.24464959558577" y2="177.55315839532614" /><path d="M 143.63769802327073 174.10635135553383 a86.0,86.0 0 0,1 -40.685524379131806,11.842963189579606" fill="none" id="id18" stroke="none" /><text fill="#e1ed5e" style="font-size:6.75px; font-family:Arial;" text-anchor="middle"><textPath startOffset="21.407464694133747" xlink:href="#id18">June</textPath></text><line stroke="#e1ed5e" stroke-width="0.3" x1="101.45913802915013" x2="101.54496967792366" y1="184.9874750549273" y2="189.98673829345242" /><path d="M 101.47630435890484 185.9873277026323 a86.0,86.0 0 0,1 -42.54439059252881,-10.42667462771756" fill="none" id="id19" stroke="none" /><text fill="#e1ed5e" style="font-size:6.75px; font-family:Arial;" text-anchor="middle"><textPath startOffset="22.145653131862474" xlink:href="#id19">July</textPath></text><line stroke="#e1ed5e" stroke-width="0.3" x1="58.13341422392154" x2="55.670673884152215" y1="173.97424548756322" y2="178.32567169271397" /><path d="M 57.64086615596767 174.84453072859336 a86.0,86.0 0 0,1 -31.369924170532244,-30.572349798747886" fill="none" id="id20" stroke="none" /><text fill="#e1ed5e" style="font-size:6.75px; font-family:Arial;" text-anchor="middle"><textPath startOffset="22.145653131862474" xlink:href="#id20">August</textPath></text><path d="M 83.20337586046588 112.60449989151573 l -25.791904540393507 19.35472600212575 a53.246360390563986,53.246360390563986 0 0,0 -0.5423470929549126,-0.7357979923684334 l 26.12035365293225 -18.909121700488438" fill="#ffe515" stroke="none" /><path d="M 82.576782715395 111.72311816256416 l -25.699957388556378 17.29207828367737 a51.97585803722699,51.97585803722699 0 0,0 -0.4917301313391718,-0.744542092294777 l 25.99301195881628 -16.84835631304353" fill="#ffce13" stroke="none" /><path d="M 82.18462484594161 111.1181117155819 l -17.51774306213076 10.932367277444719 a41.64916405765072,41.64916405765072 0 0,0 -0.3733193775858329,-0.6097891472460351 l 17.702830404171994 -10.630041014074127" fill="#ff0000" stroke="none" /><line stroke="#e1ed5e" stroke-width="0.3" x1="26.387840678322732" x2="22.057713659400548" y1="142.50000000000003" y2="145.00000000000006" /><path d="M 25.521815274538298 143.00000000000003 a86.0,86.0 0 0,1 -11.493303480769221,-40.785679425670985" fill="none" id="id21" stroke="none" /><text fill="#e1ed5e" style="font-size:6.75px; font-family:Arial;" text-anchor="middle"><textPath startOffset="21.40746469413373" xlink:href="#id21">September</textPath></text><path d="M 81.81346652052679 110.50000000000001 l -37.07436965927407 21.404897302817602 a63.80979460563517,63.80979460563517 0 0,0 -0.5395471669904592,-0.9533281456611251 l 37.436350191285904 -20.765312387057357" fill="#68ff28" stroke="none" /><path d="M 81.4637452351635 109.86951160357371 l -37.11042248721533 19.7592097215829 a63.04295215611189,63.04295215611189 0 0,0 -0.5004167348772466,-0.9596150715468653 l 37.44414729106752 -19.11924840693153" fill="#74ff27" stroke="none" /><path d="M 80.9802524753101 108.90220220490707 l -49.6396407518128 23.233858324246494 a75.80790186278062,75.80790186278062 0 0,0 -0.541541093626687,-1.1833650221812906 l 50.03116631029454 -22.378304319850514" fill="#3effb6" stroke="none" /><path d="M 80.41425534168474 107.57618678355246 l -38.40831768278209 14.857162384338386 a62.18172096132107,62.18172096132107 0 0,0 -0.3765527111377502,-0.9988508034462011 l 38.65770107773428 -14.195643300698041" fill="#81ff25" stroke="none" /><path d="M 80.16572619554312 106.89939002012753 l -40.15376980674526 13.967565508393077 a63.513740319152575,63.513740319152575 0 0,0 -0.34936966368234257,-1.0328493317558824 l 40.38762489199997 -13.276214502163034" fill="#6dff28" stroke="none" /><path d="M 80.05021161711548 106.5578916946017 l -35.2425799473248 11.584936035270387 a58.09784608686718,58.09784608686718 0 0,0 -0.3033130413553738,-0.950123782002933 l 35.43625770445743 -10.978243219576061" fill="#c4ff1e" stroke="none" /><path d="M 79.83685265289637 105.86919833188381 l -43.76859690581413 12.740400668916395 a66.58517175911666,66.58517175911666 0 0,0 -0.31003802381332607,-1.1002155707605519 l 43.98085342170203 -11.98717717425285" fill="#3fff2d" stroke="none" /><path d="M 79.56144815229197 104.8234425847677 l -37.659715690003324 8.887590360751345 a59.69423016771884,59.69423016771884 0 0,0 -0.22680719976479263,-0.9993543709005308 l 37.80673375132579 -8.239801655911789" fill="#a9ff21" stroke="none" /><path d="M 79.407916724674 104.11899336999214 l -37.39963988994797 7.480975415992749 a59.140504153360055,59.140504153360055 0 0,0 -0.19058367582668445,-0.9972143249210192 l 37.52254985805681 -6.837858526038415" fill="#b2ff20" stroke="none" /><path d="M 79.2786578344484 103.40968896794605 l -35.55089723859604 5.849886611907972 a57.028980943698585,57.028980943698585 0 0,0 -0.15066108417293206,-0.9673522373595967 l 35.64607981490724 -5.238746192616925" fill="#d6ff1c" stroke="none" /><path d="M 79.17382384314188 102.69636545807758 l -37.21320066533196 4.817993860359641 a58.523797363762725,58.523797363762725 0 0,0 -0.12044173458210274,-0.9974303393783036 l 37.29042448617373 -4.178469844057938" fill="#bdff1f" stroke="none" /><path d="M 79.13060592940153 102.33845913500099 l -42.964364060411185 4.814246608056658 a64.23324588229222,64.23324588229222 0 0,0 -0.11337965466635463,-1.0968453091656443 l 43.04067610755921 -4.075996776608083" fill="#62ff29" stroke="none" /><path d="M 79.0935383218832 101.97986365728391 l -38.869072167893485 3.680941546321476 a60.042977625436656,60.042977625436656 0 0,0 -0.0883671867068025,-1.0269606579024229 l 38.92653297729803 -3.0131598410433904" fill="#a4ff21" stroke="none" /><path d="M 79.03789590574601 101.26102812881392 l -39.86686504603051 2.398291603010094 a60.9389375323315,60.9389375323315 0 0,0 -0.05385380099072763,-1.0447493520615596 l 39.90216043647781 -1.7135704575718034" fill="#95ff23" stroke="none" /><path d="M 79.00696218219943 100.54070618675478 l -40.431727193134016 1.041377871285092 a61.44513606962913,61.44513606962913 0 0,0 -0.018107496547436812,-1.0546708949999541 l 40.44364612128012 -0.34716006031608543" fill="#8dff24" stroke="none" /><line stroke="#e1ed5e" stroke-width="0.3" x1="15.003131293944662" x2="10.003315487706104" y1="100.72959589197737" y2="100.7725132973878" /><path d="M 14.003168132696942 100.73817937305945 a86.0,86.0 0 0,1 10.791469493833604,-42.453326145846276" fill="none" id="id22" stroke="none" /><text fill="#e1ed5e" style="font-size:6.75px; font-family:Arial;" text-anchor="middle"><textPath startOffset="22.145653131862435" xlink:href="#id22">October</textPath></text><path d="M 79.00077361379809 100.18025310272382 l -39.87351511316406 0.3422661713088453 a60.874984057824335,60.874984057824335 0 0,0 0.0,-1.045038548065311 l 39.87351511316406 0.34226617130883064" fill="#96ff23" stroke="none" /><path d="M 79.06263194458094 98.37931529534042 l -38.37644339824068 -2.970579428614729 a59.49124251099307,59.49124251099307 0 0,0 0.08755518034403882,-1.017523913115136 l 38.3197945951989 3.6289243891055456" fill="#adff20" stroke="none" /><path d="M 79.13060592940154 97.66154086499901 l -37.13445943404974 -4.160993634655497 a58.36685624302277,58.36685624302277 0 0,0 0.12011875040025227,-0.9947555670227932 l 37.05755859738982 4.7978428786017275" fill="#bfff1e" stroke="none" /><path d="M 79.22317932658666 96.9465228501225 l -38.66382055192126 -5.682250159348358 a60.079137484655206,60.079137484655206 0 0,0 0.1587190905365976,-1.0190904186380652 l 38.5605799692464 6.345128759917874" fill="#a3ff22" stroke="none" /><path d="M 79.407916724674 95.88100663000787 l -45.64144841965257 -9.129567947243574 a67.54557792902719,67.54557792902719 0 0,0 0.2371888352465519,-1.1350344399796697 l 45.47800187358165 9.911718838508653" fill="#31ff2f" stroke="none" /><path d="M 79.64726062577567 94.8264132398404 l -45.63126405441525 -11.599288882962295 a68.08243580990879,68.08243580990879 0 0,0 0.2976516085612699,-1.130231639672508 l 45.42542296504925 12.380901027007587" fill="#30ff36" stroke="none" /><path d="M 79.83685265289637 94.1308016681162 l -44.193581140995896 -12.864107385991185 a67.02779456919592,67.02779456919592 0 0,0 0.33106521498847064,-1.1020084275709179 l 43.9662396060038 13.620853417152826" fill="#39ff2e" stroke="none" /><path d="M 80.05021161711548 93.44210830539832 l -44.697482788630836 -14.692950397440844 a68.05048096482763,68.05048096482763 0 0,0 0.3743248866880812,-1.1066250143198368 l 44.438672480370386 15.458077086234843" fill="#30ff36" stroke="none" /><path d="M 80.83023694016515 91.42560881287825 l -24.005813156438588 -10.73749488325869 a47.297772941255815,47.297772941255815 0 0,0 0.337876224711761,-0.7383205279453545 l 23.81795246687178 11.148004393418717" fill="#ff740a" stroke="none" /><path d="M 80.9802524753101 91.09779779509293 l -27.932927270705598 -13.074020378871378 a51.84118082657784,51.84118082657784 0 0,0 0.3841696680222281,-0.8027668515707725 l 27.704378344723466 13.551599732507238" fill="#ffcc13" stroke="none" /><path d="M 81.29705330413844 90.45014215332179 l -32.71878245759416 -16.706443453402553 a57.737228779115995,57.737228779115995 0 0,0 0.45830143605840556,-0.8788534329514375 l 32.42717295256082 17.265643129458475" fill="#caff1d" stroke="none" /><path d="M 81.63589988554816 89.8137432299009 l -39.082288226867085 -21.67828646983896 a65.69198314369498,65.69198314369498 0 0,0 0.5554621138999462,-0.9814483319094248 l 38.704392747945775 22.34599157184749" fill="#4cff2c" stroke="none" /><line stroke="#e1ed5e" stroke-width="0.3" x1="26.387840678322718" x2="22.05771365940052" y1="57.5" y2="55.0" /><path d="M 25.521815274538284 57.0 a86.0,86.0 0 0,1 29.574782752854787,-30.346332500585742" fill="none" id="id23" stroke="none" /><text fill="#e1ed5e" style="font-size:6.75px; font-family:Arial;" text-anchor="middle"><textPath startOffset="21.40746469413373" xlink:href="#id23">November</textPath></text><path d="M 82.18462484594161 88.88188828441811 l -25.26510135801342 -15.767291846217628 a50.781417676035716,50.781417676035716 0 0,0 0.46787171021281465,-0.7355720398800343 l 24.990711956174714 16.198677560776336" fill="#ffb811" stroke="none" /><path d="M 82.78059297857968 87.97951657250589 l -26.73261172489428 -18.66143914322907 a53.60186866623442,53.60186866623442 0 0,0 0.5331724311883687,-0.7499737954792945 l 26.40832419517594 19.117590165417884" fill="#ffec16" stroke="none" /><path d="M 82.98947788004972 87.6856937992154 l -21.687400372696914 -15.700005385206852 a47.77374654435158,47.77374654435158 0 0,0 0.4866051382262534,-0.660173325226632 l 21.41469321488684 16.069985019702347" fill="#ff7e0b" stroke="none" /><path d="M 83.42222388311158 87.10902102172516 l -44.53058196049681 -34.62724987329937 a77.40938896609708,77.40938896609708 0 0,0 0.8247180426304969,-1.042004305450792 l 43.92959748722475 35.38657412266484" fill="#41ffcf" stroke="none" /><path d="M 83.8745106332314 86.54754324733833 l -26.47065572296837 -22.08276246559495 a55.472365925706455,55.472365925706455 0 0,0 0.6162859307423816,-0.7259832767856005 l 26.087675228718876 22.533912524830104" fill="#f1ff19" stroke="none" /><path d="M 84.58840730492382 85.73525988315684 l -27.69310519882124 -25.632324737974173 a58.73491946494577,58.73491946494577 0 0,0 0.6912377477014883,-0.7340705339545961 l 27.24901161738348 26.10393673187328" fill="#b9ff1f" stroke="none" /><path d="M 85.34317274990677 84.96080404539775 l -43.97048175027968 -45.11758786380673 a84.0,84.0 0 0,0 1.0413100565387983,-0.997551478777726 l 43.189499207875585 45.86575147289003" fill="#4dd2ff" stroke="none" /><path d="M 86.13680546590413 84.22622945171909 l -19.236831230866027 -21.887982684322512 a50.139997628586464,50.139997628586464 0 0,0 0.6513914398914523,-0.5626564113991378 l 18.858260311211726 22.21498322818636" fill="#ffac0f" stroke="none" /><path d="M 88.4268655584334 82.4767994020092 l -19.329882406911153 -29.26790565357213 a56.07498617549852,56.07498617549852 0 0,0 0.807785189956045,-0.5235966007457175 l 18.82461158469808 29.59541609602175" fill="#e6ff1a" stroke="none" /><line stroke="#e1ed5e" stroke-width="0.3" x1="56.869717070023135" x2="54.33264160355391" y1="26.7553504044142" y2="22.446841604673864" /><path d="M 56.362301976729285 25.89364864446614 a86.0,86.0 0 0,1 42.16139366436587,-11.88097634709845" fill="none" id="id24" stroke="none" /><text fill="#e1ed5e" style="font-size:6.75px; font-family:Arial;" text-anchor="middle"><textPath startOffset="22.145653131862474" xlink:href="#id24">December</textPath></text></svg>